<svg width="79" height="79" fill="none" xmlns="http://www.w3.org/2000/svg"><g clip-path="url(#clip0)"><path d="M5.435 13.735C6.91 27.418 14.149 39.49 24.82 46.105a14.213 14.213 0 0 0 8.88 6.356v1.143c0 1.663.84 3.134 2.117 4.012v7.681h-7.79a4.754 4.754 0 0 0-4.747 4.749v.998h-1.403a3.04 3.04 0 0 0-3.038 3.038v1.88A3.042 3.042 0 0 0 21.878 79h15.218a1.158 1.158 0 0 0 0-2.315H21.878a.733.733 0 0 1-.723-.723v-1.88c0-.393.33-.724.723-.724h35.835c.392 0 .724.331.724.724v1.88c0 .392-.331.723-.724.723H42.496a1.158 1.158 0 0 0 0 2.315h15.217a3.042 3.042 0 0 0 3.038-3.038v-1.88a3.041 3.041 0 0 0-3.038-3.038h-1.402v-.998a4.754 4.754 0 0 0-4.749-4.749h-7.788v-7.681a4.865 4.865 0 0 0 2.115-4.012v-1.143a14.216 14.216 0 0 0 9.125-6.763C65.02 39.2 72.268 27.555 73.757 13.735c.375-3.476-2.368-6.517-5.866-6.517h-8.199a3.029 3.029 0 0 0 1.06-2.3v-1.88A3.041 3.041 0 0 0 57.712 0H21.878a3.041 3.041 0 0 0-3.038 3.038v1.88c0 .92.412 1.743 1.059 2.3H11.3c-3.503 0-6.24 3.047-5.865 6.517zm2.3-.248C7.51 11.385 9.173 9.533 11.3 9.533h10.197l.097 2.386H11.3a1.192 1.192 0 0 0-1.191 1.308c1.14 10.573 5.893 19.508 12.566 25.438.033.81.04.863.04.863.06.892.2 1.759.413 2.596-8.467-6.518-14.132-16.952-15.392-28.637zm14.806 21.85c-5.347-5.47-8.838-12.833-9.977-21.103h9.124l.853 21.103zm31.455 34.709v.997h-28.4v-.997a2.437 2.437 0 0 1 2.433-2.434h23.533a2.437 2.437 0 0 1 2.434 2.434zM41.46 58.45v6.846h-3.327v-6.846c.13.012.297.02.436.02h2.455c.151 0 .322-.01.436-.02zm2.116-4.847a2.56 2.56 0 0 1-2.552 2.551h-2.455a2.56 2.56 0 0 1-2.551-2.55v-.807c.32.02.658.03.924.03h5.71c.275 0 .607-.01.924-.03v.806zm-.925-3.09h-5.709c-6.547 0-11.68-5.183-11.934-11.461L23.75 7.957h32.091c-.036.912-.374 9.274-.543 13.427a1.157 1.157 0 1 0 2.313.093l.293-7.243h8.724c-1.107 8.036-4.45 15.242-9.56 20.669l.325-8.025a1.158 1.158 0 0 0-2.313-.094l-.496 12.27a11.922 11.922 0 0 1-11.934 11.46zm28.806-37.027c-1.23 11.41-6.714 21.704-14.9 28.25.308-1.372.326-2.22.375-3.444 6.768-6.214 11.077-15.091 12.152-25.058a1.194 1.194 0 0 0-1.19-1.316h-9.895l.096-2.386h9.798c2.073 0 3.797 1.792 3.564 3.954zM21.155 3.037c0-.391.33-.723.723-.723h35.835c.392 0 .724.332.724.724v1.88c0 .393-.331.724-.724.724H21.878a.733.733 0 0 1-.723-.724v-1.88z" fill="#4C4C4C"/></g><defs><clipPath id="clip0"><path fill="#fff" d="M0 0h79v79H0z"/></clipPath></defs></svg>