<svg xmlns="http://www.w3.org/2000/svg" fill="none" height="410" width="410"><g opacity=".34" fill="#488ff9"><path opacity=".34" d="M333.372 334.14c.168.168 2.263-1.938 5.782-5.813 3.519-3.96 8.463-9.772 14.245-17.353 5.698-7.582 12.15-16.848 18.435-27.8 6.2-10.95 12.15-23.586 16.507-37.486 4.441-13.9 6.703-27.715 7.625-40.267.922-12.551.503-24.008-.503-33.443-1.005-9.435-2.43-17.016-3.603-22.24-.586-2.611-1.089-4.548-1.508-5.896-.419-1.348-.67-2.022-.754-2.022-.084 0-.084.758.167 2.19.252 1.517.503 3.539.922 5.982.754 5.222 1.844 12.804 2.514 22.155.67 9.35.838 20.638-.168 33.022-1.089 12.383-3.435 25.86-7.792 39.508-4.274 13.647-9.972 26.114-16.005 36.98-6.033 10.868-12.234 20.219-17.597 27.969-5.446 7.666-10.139 13.73-13.323 17.943-3.352 4.044-5.111 6.402-4.944 6.57z"/><path opacity=".34" d="M354.237 325.968c.168.169 1.844-1.263 4.777-3.96a56.488 56.488 0 002.43-2.273c.838-.843 1.759-1.854 2.765-2.865 1.927-2.106 4.19-4.38 6.368-7.244 1.173-1.432 2.346-2.864 3.52-4.381.67-.758 1.173-1.6 1.759-2.443.587-.842 1.173-1.684 1.844-2.527.586-.842 1.257-1.77 1.843-2.611.335-.421.671-.927.922-1.348.335-.505.586-.927.922-1.432 1.173-1.938 2.43-3.875 3.687-5.897 4.776-8.171 9.468-17.522 13.407-27.8a188.456 188.456 0 008.211-29.82c.336-2.36.754-4.633 1.09-6.823.083-.59.167-1.095.251-1.685.084-.59.084-1.095.168-1.601.083-1.095.251-2.19.335-3.201.084-1.011.167-2.106.335-3.117.084-1.011.251-2.021.251-2.948.084-1.938.168-3.791.168-5.644.168-3.622 0-6.824-.084-9.688-.084-1.432-.084-2.78-.167-3.96-.084-1.178-.252-2.274-.336-3.284-.419-3.96-.754-6.15-1.005-6.15-.252 0-.335 2.275-.251 6.234 0 1.01-.001 2.106.083 3.285 0 1.18-.083 2.527-.083 3.959-.084 2.78-.084 5.982-.419 9.52-.168 1.769-.252 3.622-.419 5.559-.084.927-.252 1.938-.336 2.949-.167 1.01-.251 2.022-.419 3.032-.167 1.01-.251 2.106-.419 3.117-.083.506-.083 1.095-.251 1.6-.084.506-.168 1.096-.335 1.6-.419 2.192-.754 4.466-1.173 6.74a217.161 217.161 0 01-8.296 29.232c-3.854 10.109-8.379 19.29-12.904 27.462a176.881 176.881 0 01-3.519 5.813c-.252.505-.587.926-.838 1.432-.252.42-.587.926-.922 1.347a69.608 69.608 0 01-1.76 2.612c-.586.842-1.173 1.685-1.676 2.527-.586.843-1.089 1.685-1.675 2.443-1.174 1.516-2.263 3.033-3.352 4.465-2.011 2.864-4.19 5.223-5.95 7.413-.921 1.095-1.675 2.106-2.513 3.033-.755.842-1.509 1.684-2.179 2.442-2.598 2.949-4.022 4.718-3.855 4.886z"/></g><g opacity=".34" fill="#488ff9"><path opacity=".34" d="M21.576 289.998c-.252 0-.922-2.78-1.928-8.003-1.005-5.223-2.178-12.804-3.184-22.24-.921-9.434-1.676-20.806-1.34-33.358.335-12.552 1.76-26.451 5.279-40.604 3.435-14.152 8.547-27.21 14.245-38.413a185.957 185.957 0 0117.764-28.305c5.698-7.581 10.893-13.31 14.58-17.1 1.843-1.854 3.352-3.37 4.357-4.297 1.006-.926 1.592-1.347 1.676-1.347.084.084-.335.674-1.257 1.769-1.005 1.179-2.262 2.695-3.938 4.633-3.352 4.043-8.212 9.94-13.658 17.606a212.52 212.52 0 00-16.927 28.304c-5.446 11.12-10.39 23.925-13.826 37.824-3.435 13.9-4.944 27.547-5.446 39.93-.503 12.467 0 23.67.586 33.106.67 9.435 1.508 17.016 2.095 22.239.838 5.307 1.173 8.256.922 8.256z"/><path opacity=".34" d="M8.001 272.139c-.251.084-.922-2.021-2.095-5.897-.251-1.01-.586-2.021-.922-3.201-.335-1.18-.586-2.443-.838-3.875-.586-2.78-1.34-5.981-1.76-9.52a461.771 461.771 0 01-.753-5.56c-.168-1.01-.168-1.936-.252-2.947-.083-1.011-.167-2.022-.251-3.117-.084-1.095-.168-2.106-.251-3.201 0-.505-.084-1.095-.084-1.685v-1.685c0-2.274-.084-4.55-.084-6.907.168-9.52 1.005-19.965 2.933-30.748 2.095-10.782 5.111-20.807 8.38-29.736.92-2.191 1.759-4.381 2.597-6.403.251-.505.419-1.011.67-1.516.251-.505.503-1.011.67-1.516.503-1.011.922-1.938 1.425-2.864.419-.927.922-1.854 1.34-2.78.42-.927.838-1.854 1.341-2.696.922-1.685 1.844-3.37 2.765-4.886 1.676-3.201 3.52-5.813 5.028-8.255.754-1.18 1.508-2.275 2.179-3.286a44.843 44.843 0 002.01-2.696c2.43-3.2 3.855-4.885 4.023-4.717.167.169-.922 2.106-3.017 5.476a69.879 69.879 0 01-1.76 2.78c-.586 1.01-1.256 2.19-1.927 3.37-1.34 2.442-3.1 5.138-4.608 8.339-.838 1.6-1.676 3.2-2.514 4.97-.503.842-.838 1.769-1.257 2.696l-1.257 2.78c-.419.926-.838 1.937-1.257 2.864-.251.505-.419 1.01-.67 1.516-.168.506-.42 1.01-.587 1.516-.754 2.106-1.592 4.212-2.43 6.403-3.1 8.845-5.95 18.7-7.96 29.315-1.927 10.614-2.85 20.892-3.184 30.158v8.508c0 .506.084 1.095.084 1.6.083 1.096.083 2.107.167 3.202.084 1.01.084 2.022.168 3.033.083 1.01.083 2.02.167 2.948.168 1.937.335 3.79.587 5.56.251 3.538.838 6.655 1.257 9.519.251 1.432.335 2.696.586 3.875.252 1.179.42 2.274.587 3.285.67 3.707.922 5.897.754 5.98z"/></g><path opacity=".34" d="M357.002 117.306c8.547 15.332 14.748 32.096 17.764 49.533 7.793 45.743-5.781 95.19-38.964 127.539-26.395 25.694-59.912 38.498-95.357 45.91-12.15 2.613-24.552 3.118-36.702 5.224-6.955 1.264-13.407 4.465-20.445 5.223-21.703 2.19-47.511-4.212-67.706-11.794-39.802-14.91-66.197-45.91-77.593-86.598-6.703-24.01-6.368-49.617 1.173-73.457 1.76-5.644 4.023-11.12 6.955-16.26 9.218-16.004 26.48-28.893 45.165-29.567 18.435-.674 37.288 7.75 54.969 2.443 13.239-3.96 23.211-14.91 31.003-26.451 7.71-11.541 13.994-24.177 23.463-34.286 21.535-23.081 57.482-28.978 87.313-18.954 29.83 10.025 53.544 33.865 68.962 61.495z" fill="#a4c9f7"/><path d="M87.605 149.149c-.251-3.285-1.09-5.644-2.011-5.644-1.006 0-1.76 2.443-2.011 5.644-2.765.253-4.776 1.095-4.776 2.022 0 .926 2.01 1.769 4.776 2.02.251 3.287 1.09 5.645 2.011 5.645 1.006 0 1.76-2.442 2.011-5.644 2.765-.252 4.776-1.095 4.776-2.021 0-1.011-2.01-1.77-4.776-2.022z" fill="#fcbf65"/><path d="M302.872 97.678c-.252-3.285-1.09-5.644-2.011-5.644-1.006 0-1.76 2.443-2.012 5.644-2.765.253-4.776 1.095-4.776 2.022 0 .927 2.011 1.769 4.776 2.022.252 3.285 1.09 5.644 2.012 5.644 1.005 0 1.759-2.443 2.011-5.644 2.765-.253 4.776-1.095 4.776-2.022 0-1.01-2.011-1.77-4.776-2.022zM99.671 54.968c-.167-2.78-.921-4.8-1.76-4.8-.837 0-1.508 2.02-1.759 4.8-2.346.254-4.022.928-4.022 1.77 0 .843 1.676 1.517 4.022 1.769.168 2.78.922 4.802 1.76 4.802s1.508-2.022 1.76-4.802c2.346-.252 4.021-.926 4.021-1.77.084-.841-1.675-1.515-4.022-1.768z" fill="#f6f"/><path d="M200.978 42.418c-.168-2.275-.754-3.96-1.424-3.96-.671 0-1.257 1.685-1.425 3.96-1.927.168-3.352.757-3.352 1.43 0 .675 1.425 1.265 3.352 1.433.168 2.275.754 3.96 1.425 3.96.67 0 1.256-1.685 1.424-3.96 1.927-.168 3.352-.758 3.352-1.432 0-.674-1.425-1.263-3.352-1.432z" fill="#fcbf65"/><path d="M145.59 86.98c-.084-1.6-.503-2.695-1.006-2.695-.502 0-.838 1.179-1.005 2.695-1.341.169-2.263.506-2.263 1.01 0 .422.922.844 2.263 1.012.084 1.6.503 2.696 1.005 2.696.503 0 .838-1.18 1.006-2.696 1.341-.168 2.262-.505 2.262-1.01 0-.506-.921-.843-2.262-1.012zm169.515-35.044c-.084-1.6-.503-2.695-1.006-2.695-.502 0-.837 1.18-1.005 2.695-1.341.169-2.262.506-2.262 1.01 0 .422.921.844 2.262 1.012.084 1.6.503 2.696 1.005 2.696.503 0 .838-1.18 1.006-2.696 1.341-.168 2.262-.505 2.262-1.01 0-.506-1.005-.927-2.262-1.012z" fill="#f6f"/><path d="M342.505 153.446c-.083-1.601-.502-2.696-1.005-2.696-.503 0-.838 1.179-1.006 2.696-1.34.168-2.262.505-2.262 1.01 0 .422.922.843 2.262 1.01.084 1.602.503 2.697 1.006 2.697s.838-1.18 1.005-2.696c1.341-.168 2.263-.505 2.263-1.01 0-.506-1.006-.843-2.263-1.011z" fill="#fcbf65"/><path d="M246.143 276.688c-1.76-2.443-1.592-5.896-.168-8.508 1.425-2.611 4.022-4.465 6.787-5.56 9.553-3.875 20.362.169 29.412 5.139 4.273 2.359 8.715 5.054 13.575 4.886 6.536-.17 11.731-5.223 16.088-10.11 3.352-3.79 6.871-7.917 11.564-10.023 4.357-1.938 7.625-2.106 11.396-5.73 4.608-4.463 7.625-11.203 5.949-17.436-1.341-5.307-5.782-9.688-5.698-15.164 0-3.453 2.095-6.233 3.519-9.182 1.341-2.78 1.76-5.812 2.514-8.845 1.508-6.234-1.341-12.13-5.698-16.595-4.19-4.296-9.636-4.633-14.077-8.003-4.693-3.622-3.352-9.687-3.771-14.826-.587-7.497-3.1-15.416-9.971-19.291-5.782-3.285-12.402-3.79-18.184-7.245-7.709-4.55-11.479-8.76-12.988-17.858-.838-5.14-1.257-10.362-2.597-15.416-4.022-14.321-16.759-23.756-30.501-27.21-6.871-1.77-14.58-1.77-21.619-1.6-6.368.168-13.239.758-19.105 3.622-.587.337-1.173.59-1.844.674-.586.084-1.173 0-1.759-.084-13.91-2.022-25.39 7.918-29.915 20.554-1.843 5.139-2.178 11.878-6.284 15.837-4.19 4.044-11.396 4.55-16.843 5.392-1.34.252-2.681.42-4.022.758-9.552 2.358-18.099 11.12-17.261 20.975.838 9.267 5.195 15.753-3.855 22.914-4.441 3.538-9.887 4.97-13.993 9.098-3.184 3.116-5.531 6.907-7.207 11.035-3.184 7.834-4.692 18.954 1.76 25.609 8.044 8.34 18.1 19.038 30.333 12.046" fill="#7c4499"/><path opacity=".31" d="M187.655 92.456c-7.877.59-13.491 8.17-16.005 15.668-1.508 4.465-2.346 9.267-5.363 12.805-3.854 4.549-10.139 5.812-15.837 7.413-12.317 3.538-17.094 12.72-13.826 25.103 1.173 4.296 3.268 10.446 1.09 14.658-2.179 4.38-8.212 7.75-11.899 10.783-5.112 4.296-9.469 9.77-11.145 16.174-1.676 6.486-.335 13.983 4.525 18.448 4.022 3.707 9.888 4.97 15.334 4.886 5.531-.084 10.894-1.263 16.424-1.77 9.385-.841 19.021.59 27.736 4.129 6.452 2.61 12.401 6.234 18.937 8.677 6.536 2.442 13.91 3.453 20.278.673 5.363-2.358 9.385-7.16 12.066-12.467 8.212-16.006 5.615-35.381.419-52.566-1.675-5.644-3.686-11.625-2.43-17.353" fill="#553b6d"/><path opacity=".31" d="M262.733 108.46c-1.34 11.795 1.928 24.936 11.312 32.18 7.542 5.814 18.77 7.92 22.625 16.68 3.016 6.74.586 16.259 5.949 21.987 3.017 3.2 7.793 3.117 11.312 5.813 4.525 3.369 8.631 8.087 8.799 13.983.167 5.476-3.101 10.53-3.017 16.006.084 7.16 5.698 14.489 2.514 20.892-1.844 3.79-6.201 5.559-10.307 6.486-12.988 2.948-26.73.337-38.88-5.14-12.15-5.474-22.792-13.73-32.931-22.322-3.854-3.201-7.709-6.74-9.636-11.373-2.011-5.138-1.257-10.867-.587-16.258 1.257-10.698 1.844-22.492-4.273-31.421-3.268-4.718-8.212-8.51-9.469-14.068" fill="#553b6d"/><path d="M143.914 222.354c.084-.084-1.927-1.095-4.19-4.212-1.089-1.516-2.178-3.622-2.849-6.318-.586-2.611-.754-5.813.335-9.014.084-.168.168-.421.168-.59l.251-.59c.168-.42.336-.757.503-1.178.503-.76.838-1.601 1.425-2.275 1.005-1.516 2.346-2.948 3.854-4.38 2.933-2.78 6.368-5.392 9.72-8.593 1.676-1.6 3.268-3.37 4.609-5.391 1.257-2.106 2.262-4.381 2.681-6.908.419-2.527.419-5.138-.167-7.75-.587-2.611-1.76-4.97-3.017-7.33-1.257-2.357-2.514-4.632-3.016-7.075-.503-2.443-.084-4.97.921-7.076.503-1.095 1.173-2.106 1.928-3.033a17.905 17.905 0 012.513-2.527c1.76-1.516 3.771-2.696 5.782-3.622 2.011-.927 4.106-1.853 5.949-3.033 1.844-1.263 3.352-2.864 4.358-4.717 1.005-1.77 1.759-3.707 2.262-5.56a43.81 43.81 0 001.089-5.391c.419-3.454.671-6.571 1.174-9.267.502-2.695 1.173-4.97 1.927-6.74.754-1.768 1.592-3.031 2.262-3.79a33.467 33.467 0 001.006-1.18s-.084.085-.335.254c-.168.168-.503.42-.838.842-.671.758-1.592 2.022-2.43 3.79-.838 1.77-1.592 4.044-2.095 6.74-.503 2.696-.838 5.813-1.341 9.266-.503 3.37-1.257 7.16-3.268 10.615-1.005 1.684-2.43 3.285-4.106 4.464-1.759 1.18-3.77 2.022-5.865 2.949-2.095.926-4.106 2.19-6.033 3.706a19.033 19.033 0 00-2.598 2.612c-.754 1.01-1.508 2.02-2.095 3.2-1.089 2.275-1.592 5.055-1.005 7.667.502 2.61 1.843 4.97 3.1 7.329 1.257 2.358 2.43 4.633 2.933 7.076.586 2.443.586 4.97.167 7.329-.419 2.442-1.34 4.633-2.597 6.654-1.257 2.022-2.849 3.707-4.441 5.308-3.268 3.116-6.788 5.728-9.637 8.592-1.424 1.432-2.849 2.864-3.854 4.465-.587.758-1.006 1.6-1.425 2.443-.167.42-.335.842-.586 1.263l-.252.59a1.603 1.603 0 00-.167.674c-1.089 3.369-.922 6.655-.252 9.35a18.191 18.191 0 003.017 6.403c1.173 1.516 2.346 2.527 3.184 3.117.419.337.754.505 1.006.674.251.084.335.168.335.168zm33.182-6.992c0-.084-1.508-.421-3.77-1.937-1.173-.76-2.43-1.854-3.603-3.37a13.507 13.507 0 01-2.598-5.981c-.419-2.36-.168-5.14.922-7.75a11.334 11.334 0 012.262-3.707c1.006-1.18 2.179-2.106 3.52-3.032 2.597-1.854 5.781-3.37 8.295-6.15 1.173-1.348 2.095-3.117 2.43-5.054.335-1.938.084-3.875-.419-5.728-1.005-3.791-3.1-6.908-4.609-10.11-1.508-3.2-2.346-6.486-2.513-9.687-.168-3.201.251-6.318 1.173-9.013.838-2.78 2.178-5.14 3.603-7.077 2.933-3.96 6.284-6.233 8.714-7.497 2.431-1.264 3.939-1.685 3.855-1.77 0 0-.419.085-1.089.254-.671.252-1.676.59-2.933 1.18-2.514 1.178-5.949 3.453-9.05 7.412-1.508 2.022-2.933 4.38-3.771 7.245a25.606 25.606 0 00-1.256 9.266c.167 3.286.921 6.824 2.513 10.025 1.509 3.285 3.603 6.402 4.525 9.94.503 1.769.671 3.622.419 5.39-.251 1.77-1.089 3.287-2.178 4.635-2.347 2.61-5.447 4.127-8.128 5.98-1.341.927-2.598 2.022-3.604 3.202-1.005 1.263-1.759 2.61-2.346 3.959-1.089 2.78-1.257 5.644-.838 8.17.419 2.528 1.592 4.55 2.765 6.15 1.257 1.6 2.598 2.696 3.771 3.37 1.173.759 2.179 1.18 2.933 1.348.587.253.922.337 1.005.337zm17.68-7.245c.084 0-.084-.926.084-2.611.167-1.685.754-3.96 2.178-6.571 1.341-2.611 3.436-5.56 5.363-9.013.922-1.77 1.844-3.707 2.263-5.897.502-2.19.335-4.55-.503-6.824-.838-2.19-2.011-4.127-3.017-5.981-.502-.926-1.005-1.853-1.34-2.78-.336-.926-.671-1.853-.838-2.864-.754-3.79-.084-7.413 1.089-10.108.587-1.348 1.257-2.528 1.927-3.454a19.185 19.185 0 011.928-2.275c.251-.252.502-.505.837-.758.252-.168.419-.337.587-.505.335-.253.503-.422.503-.506 0 0-.252.084-.587.337-.167.084-.419.253-.67.42a5.88 5.88 0 01-.838.675c-.67.59-1.341 1.264-2.095 2.275-.67 1.01-1.508 2.106-2.095 3.538-1.257 2.78-2.095 6.486-1.257 10.53.168 1.01.503 2.022.838 2.948.419 1.01.838 1.938 1.425 2.864 1.005 1.938 2.178 3.79 2.933 5.897.754 2.106.921 4.296.502 6.318-.419 2.022-1.257 3.959-2.178 5.644-1.844 3.454-3.855 6.402-5.196 9.182-.67 1.348-1.173 2.612-1.508 3.79-.335 1.18-.419 2.19-.503 3.034 0 .842 0 1.516.084 1.937 0 .59.084.843.084.758zm114.211 26.115c.084 0-.586-1.853-.503-5.307 0-1.685.252-3.791.755-6.234.419-2.443 1.173-5.138 1.675-8.171.503-3.033.838-6.571-.083-10.193-.503-1.77-1.257-3.622-2.598-5.14-1.257-1.6-2.849-2.863-4.692-3.874-1.76-1.095-3.771-1.937-5.698-2.695-2.011-.76-4.022-1.517-6.034-2.443-2.011-.927-3.938-2.022-5.697-3.454-1.676-1.432-3.101-3.286-3.771-5.476-.671-2.19-.671-4.465-.587-6.74.168-2.274.419-4.548.335-6.822 0-2.275-.502-4.55-1.424-6.571-.922-2.022-2.262-3.707-3.687-5.223-2.933-2.948-6.368-4.97-9.72-6.487-3.352-1.516-6.62-2.442-9.469-3.622-2.849-1.095-5.363-2.36-7.206-3.96-1.843-1.515-3.1-3.284-3.771-4.885-.754-1.516-.921-2.864-1.005-3.79v-1.349s0 .085-.084.337c0 .253-.084.59-.084 1.01 0 .928.168 2.276.838 3.96.67 1.6 1.927 3.454 3.771 5.055 1.843 1.685 4.441 3.033 7.29 4.128 2.849 1.179 6.117 2.106 9.385 3.706 3.268 1.516 6.619 3.538 9.468 6.402 1.425 1.432 2.598 3.117 3.52 4.97.838 1.938 1.34 4.044 1.34 6.234.084 2.19-.251 4.465-.335 6.739-.167 2.275-.167 4.718.587 7.077.754 2.358 2.262 4.38 4.106 5.896 1.843 1.517 3.854 2.612 5.865 3.538 2.011.927 4.106 1.685 6.117 2.443 2.011.759 3.855 1.6 5.614 2.612 1.76 1.01 3.268 2.19 4.441 3.706 1.257 1.433 2.012 3.117 2.431 4.886.921 3.454.586 6.908.167 9.94-.503 3.033-1.173 5.813-1.592 8.172-.419 2.443-.67 4.549-.67 6.318 0 1.769.251 3.117.419 3.959.083.42.251.758.251 1.01.335.254.335.338.335.338zm-34.271-22.83c0-.083-.922-.757-2.681-2.021-1.676-1.263-4.274-3.032-6.871-5.812-1.257-1.348-2.598-3.033-3.52-4.97-.084-.253-.251-.506-.335-.76-.084-.251-.167-.504-.335-.757-.251-.505-.335-1.095-.503-1.684-.251-1.18-.419-2.36-.419-3.623-.084-2.527.252-5.138.671-7.834.335-2.696.754-5.644.502-8.593a17.82 17.82 0 00-1.005-4.296c-.587-1.348-1.257-2.611-2.095-3.791-1.676-2.274-3.603-4.127-5.614-5.728-1.927-1.6-3.855-3.032-5.614-4.465-1.76-1.432-3.268-2.78-4.609-4.127-2.598-2.696-3.855-5.644-4.022-7.75-.168-2.106.419-3.201.335-3.286 0 0-.168.253-.335.758-.168.506-.335 1.348-.335 2.443.083 2.19 1.257 5.307 3.938 8.172a46.311 46.311 0 004.609 4.296 718.045 718.045 0 015.53 4.549c1.927 1.6 3.855 3.454 5.363 5.644.838 1.095 1.424 2.274 2.011 3.538.503 1.264.838 2.696 1.005 4.043.252 2.865-.083 5.645-.419 8.424-.335 2.696-.754 5.392-.586 8.003 0 1.264.251 2.527.503 3.707.167.589.335 1.179.586 1.685.084.252.252.589.335.842.168.253.252.505.419.758 1.006 2.022 2.43 3.707 3.771 5.139 2.681 2.78 5.363 4.464 7.123 5.644.921.59 1.592 1.01 2.094 1.348.252.42.503.505.503.505z" fill="#7c4499"/><path d="M244.886 185.289c-1.09-.422-2.011-1.348-2.179-2.612l-2.933-19.796-29.83 4.38.838 16.596c.083 1.769-1.174 3.2-2.849 3.453 1.675 4.128 4.357 7.75 7.96 10.278 5.447 3.79 12.988 4.633 18.77 1.432 5.111-2.78 8.212-8.003 10.223-13.731z" fill="#e88ba4"/><path d="M298.429 279.805c-4.525 3.875-10.223 7.076-16.172 6.655-2.933-.168-5.698-1.18-8.379-2.19-6.033-2.36-10.642-5.055-17.262-4.633-4.273.337-8.966 1.769-11.982 4.97-.168.168-.419.42-.419.674-.084.505.251 1.095.754 1.263.503.253 1.005.169 1.592.169 4.106-.17 8.966-1.095 12.988-.337 3.352.674 7.122 1.853 10.223 3.285-7.793 1.685-15.753.59-22.96 4.549-1.759.927-11.144 7.329-7.792 9.94 1.424 1.18 2.681.337 3.854-.505 7.793-5.728 17.597-7.666 27.149-7.16-.922.589-2.011.842-3.1 1.095-3.519.842-7.039 1.516-10.307 3.032-4.189 1.854-8.295 5.139-11.061 8.845-.335.506-.754 1.01-.837 1.6-.168.59 0 1.349.502 1.686.335.253.671.337 1.09.337 1.089.084 2.094-.421 3.1-.927 3.687-1.853 6.955-4.38 10.726-5.897 4.022-1.684 8.379-2.443 12.82-1.937-4.106 1.263-8.128 2.948-11.815 5.138-3.938 2.275-8.044 5.897-7.877 10.53 0 .253 0 .59.168.843.67 1.095 2.262.168 3.184-.674 3.268-3.201 7.374-5.56 11.815-6.571 3.017-.674 5.195-.421 7.877.927 3.016 1.516 6.2 2.78 9.552 3.285 6.285.843 11.815-1.18 17.513-3.791 6.201-2.78 12.15-6.402 17.345-10.866" fill="#f498ac"/><path opacity=".17" d="M283.096 286.544c4.106 10.193 8.212 20.47 12.317 30.664 2.682-.76 5.279-1.854 7.961-3.033 6.201-2.78 12.15-6.402 17.345-10.867l-22.289-23.503c-4.274 3.79-9.636 6.739-15.334 6.739z" fill="#f498ac"/><path d="M298.598 199.44c-21.954-16.932-44.076-15.331-52.12-13.983-.587.084-1.089 0-1.592-.17-2.011 5.729-5.028 10.952-10.223 13.732-5.782 3.117-13.323 2.359-18.77-1.432-3.603-2.527-6.284-6.15-7.96-10.277h-.754c-9.134-1.095-31.591-3.454-34.859.253 0 0-77.676 115.66-12.736 155.085 64.94 39.509 133.232 8.087 133.232 8.087.335-25.862-15.67-68.318-15.67-68.318 4.441-15.67 2.43-35.718 2.43-35.718l25.474 16.764-20.446 19.627 19.356 33.78s39.467-22.744 48.685-41.277c9.217-18.448-26.479-54.924-54.047-76.153z" fill="#fcbf65"/><path d="M247.232 196.155c2.011-3.538 3.352-7.33 4.273-11.372-2.011.168-3.687.42-5.027.589-.587.085-1.09 0-1.592-.168-2.011 5.728-5.028 10.95-10.223 13.73-5.782 3.118-13.323 2.36-18.77-1.431-3.603-2.527-6.285-6.15-7.96-10.277h-.755c-1.34-.17-3.016-.337-4.86-.59.922 4.296 2.43 8.34 4.777 12.046 3.687 5.813 9.72 10.278 16.507 11.12 9.552 1.264 18.854-5.223 23.63-13.647z" fill="#f9e167"/><path d="M272.789 234.316c2.011 4.633 4.357 8.508 6.619 11.54.336.506.754.927 1.09 1.433l2.178 1.432c-.838-1.011-1.676-2.19-2.513-3.454-2.095-3.117-4.358-6.992-6.201-11.541-1.927-4.55-3.52-9.772-4.357-15.416-.838-5.644-.922-11.12-.336-16.005.168-1.18.336-2.443.503-3.538.168-1.18.503-2.275.67-3.37a35.146 35.146 0 011.676-5.897 21.47 21.47 0 011.173-2.78c-.251-.084-.586-.168-.837-.252-.419.842-.838 1.685-1.174 2.695-.67 1.769-1.424 3.79-1.843 5.897-.251 1.095-.587 2.19-.754 3.37-.168 1.179-.419 2.359-.587 3.622-.586 4.97-.586 10.614.252 16.343.838 5.98 2.43 11.288 4.441 15.92zm52.119 15.753c-1.759.674-3.77 1.6-6.033 2.695-2.178 1.18-4.608 2.528-6.955 4.128a86.28 86.28 0 00-6.452 4.886c-.419.42-.838.758-1.257 1.095l.838.59-7.541 7.244c1.759-1.516 7.206-7.413 15.166-12.72 9.385-6.402 18.184-9.266 18.1-9.687-.084-.17-2.346.337-5.866 1.769zm-32.763 89.884c-7.625 3.032-16.507 5.644-26.395 7.329-6.452 1.179-13.239 1.853-20.362 2.274-7.122.42-14.496.42-22.038.168-7.541-.252-14.915-.842-22.037-1.516a348.01 348.01 0 01-20.446-2.527 296.238 296.238 0 01-18.267-3.454c-2.095-.421-4.106-1.011-6.117-1.516.922.589 1.843 1.263 2.849 1.853l3.016.758c5.698 1.348 11.815 2.612 18.351 3.623 6.536 1.01 13.324 1.937 20.446 2.61 7.122.675 14.496 1.265 22.122 1.517 7.625.253 14.999.253 22.205-.168 7.122-.421 14.077-1.18 20.529-2.443 9.804-1.77 18.686-4.381 26.312-7.497-.084-.337-.084-.674-.168-1.011zm20.446-28.39c-2.681-4.295-5.782-9.181-8.966-14.404a945.959 945.959 0 01-12.066-20.723l-.754.758a405.374 405.374 0 0011.731 20.723 691.684 691.684 0 009.05 14.405c.335-.337.67-.505 1.005-.758z" fill="#d89b4a"/><path d="M239.272 205.674c-41.897-8.424-65.862-25.356-74.996-33.106a5.556 5.556 0 00-7.206 0c-9.134 7.75-33.182 24.682-74.995 33.106-2.514.506-4.442 2.696-4.525 5.307-1.006 21.734-2.347 115.999 45.667 141.86 14.58 7.834 25.725 11.794 34.356 17.69a5.523 5.523 0 006.368 0c8.547-5.896 19.775-9.856 34.355-17.69 47.93-25.861 46.59-120.126 45.668-141.86-.251-2.611-2.179-4.801-4.692-5.307z" fill="#48ae39"/><path d="M160.672 363.455a6.023 6.023 0 01-3.351-1.01c-4.441-3.033-9.804-5.56-15.921-8.51-4.525-2.105-9.72-4.548-15.334-7.58-18.77-10.11-31.59-32.601-37.959-66.718-5.028-26.957-4.525-53.408-4.106-63.517.084-2.696 2.095-5.054 4.776-5.56 38.462-7.75 60.5-23.587 68.125-30.073 1.089-.927 2.43-1.348 3.77-1.348a5.89 5.89 0 013.771 1.348c7.625 6.486 29.663 22.323 68.125 30.073 2.681.506 4.608 2.864 4.776 5.56.419 10.109.921 36.56-4.106 63.517-6.368 34.117-19.189 56.525-37.959 66.718-5.614 3.032-10.809 5.475-15.334 7.58-6.201 2.95-11.48 5.393-15.921 8.51a6.024 6.024 0 01-3.352 1.01zm0-182.716c-1.005 0-2.011.337-2.765 1.01-7.793 6.572-29.998 22.577-68.794 30.412-2.011.42-3.436 2.106-3.52 4.127-.419 10.025-.922 36.392 4.106 63.096 6.285 33.612 18.854 55.683 37.205 65.623 5.614 3.033 10.725 5.475 15.25 7.58 6.201 2.95 11.564 5.477 16.172 8.594 1.509 1.01 3.52 1.01 4.944 0 4.525-3.117 9.972-5.644 16.172-8.593 4.525-2.106 9.637-4.548 15.251-7.581 18.351-9.94 30.836-32.011 37.204-65.623 5.028-26.788 4.525-53.071 4.106-63.096-.084-2.021-1.508-3.706-3.519-4.127-38.881-7.835-61.086-23.84-68.795-30.411-1.005-.674-2.011-1.011-3.017-1.011z" fill="#fff"/><path d="M191.007 254.954h-21.116v-21.228c0-4.718-3.855-8.593-8.547-8.593h-1.341c-4.693 0-8.547 3.875-8.547 8.593v21.228H130.34c-4.693 0-8.547 3.875-8.547 8.593v1.347c0 4.718 3.854 8.593 8.547 8.593h21.116v21.228c0 4.718 3.854 8.593 8.547 8.593h1.341c4.692 0 8.547-3.875 8.547-8.593v-21.228h21.116c4.692 0 8.547-3.875 8.547-8.593v-1.347c0-4.718-3.855-8.593-8.547-8.593z" fill="#fff"/><path opacity=".34" d="M123.133 352.757c14.58 7.834 25.725 11.794 34.356 17.69a5.523 5.523 0 006.368 0c8.547-5.896 19.775-9.856 34.355-17.69 19.441-10.446 30.753-32.18 37.289-55.767-15.754-8.171-33.266-12.214-50.779-15.247-9.385-1.601-19.105-3.033-27.15-8.087-10.893-6.908-16.926-19.375-21.618-31.506-5.782-14.91-10.475-30.41-19.105-43.89l-1.509-2.273c-9.468 3.622-20.53 6.992-33.266 9.519-2.513.505-4.44 2.696-4.525 5.307-1.005 21.818-2.346 116.083 45.584 141.944z" fill="#84ee74"/><path opacity=".15" d="M242.288 180.15l-2.598-17.185-29.83 4.38.838 16.596c0 .758-.168 1.432-.587 2.02 11.061.928 22.289-1.094 32.177-5.811z" fill="#f498ac"/><path d="M181.035 118.823c-3.938-.505-8.631 1.6-10.642 5.055-2.011 3.453-2.094 7.834-1.34 11.709.67 3.622 2.178 7.076 4.608 9.772 2.43 2.695 6.033 4.464 9.637 4.38" fill="#e58ca3"/><path d="M182.207 146.285c.084 0 .252-1.516.336-3.875 0-2.443-.168-5.812-1.257-9.435-1.173-3.622-3.352-6.402-5.279-7.918-1.928-1.516-3.52-1.853-3.52-1.77-.083.17 1.341.675 3.101 2.275 1.759 1.517 3.687 4.296 4.86 7.666 1.089 3.454 1.34 6.739 1.508 9.182.084 2.359.084 3.875.251 3.875z" fill="#c4657e"/><path d="M180.113 140.894c.083-.168-.671-.505-1.509-1.348-.838-.842-1.759-2.358-1.843-4.127-.084-1.77.67-3.37 1.424-4.297.755-.926 1.425-1.432 1.341-1.516 0-.084-.838.169-1.76 1.095-.921.927-1.927 2.696-1.759 4.802.084 2.106 1.257 3.706 2.262 4.549 1.006.758 1.76.926 1.844.842z" fill="#c4657e"/><path d="M259.969 119.245c2.178-.927 5.865-.674 8.044.168 2.262.758 4.19 2.443 5.447 4.55 2.011 3.453 2.094 7.833 1.34 11.708-.67 3.623-2.178 7.077-4.608 9.772-3.436 3.79-10.642 5.644-15.586 4.465" fill="#f498ac"/><path d="M245.472 86.475c-6.871-3.538-15.25-5.055-22.791-5.392-10.223-.42-21.703.927-29.831 7.835-4.776 4.043-7.877 9.772-9.72 15.753-1.76 5.98-2.262 12.299-2.346 18.617-.084 5.644.084 11.288.586 16.932.922 9.772 3.017 20.133 10.139 26.788 7.877 7.497 19.273 8.677 29.663 8.508 7.542-.084 15.335-1.095 22.122-4.633 12.15-6.402 15.753-21.144 17.261-33.78 1.509-13.478 2.766-28.81-4.692-40.856-2.598-4.128-6.117-7.498-10.391-9.772z" fill="#f498ac"/><path d="M200.643 134.408c1.388 0 2.514-2.34 2.514-5.223 0-2.885-1.126-5.223-2.514-5.223-1.389 0-2.514 2.338-2.514 5.223 0 2.884 1.125 5.223 2.514 5.223zm27.736 0c1.388 0 2.513-2.34 2.513-5.223 0-2.885-1.125-5.223-2.513-5.223-1.389 0-2.514 2.338-2.514 5.223 0 2.884 1.125 5.223 2.514 5.223z" fill="#5d3d7f"/><path d="M199.447 114.15c3.626-1.273 6.046-3.802 5.404-5.646-.641-1.845-4.101-2.307-7.726-1.033-3.626 1.274-6.046 3.803-5.405 5.647.642 1.845 4.101 2.307 7.727 1.033zm41.003-.982c.641-1.845-1.778-4.373-5.404-5.647-3.626-1.275-7.085-.813-7.727 1.032-.641 1.845 1.778 4.373 5.404 5.647 3.626 1.275 7.086.812 7.727-1.032z" fill="#c4657e"/><path opacity=".22" d="M256.952 283.344l-10.391 1.01c-1.173.253-2.178 1.348-2.094 2.612 0 1.179 1.005 2.359 2.178 2.527-6.117 3.286-12.15 8.593-12.569 15.585-.084 1.01 0 2.106.67 2.948 1.006 1.264 2.766 1.432 4.19 2.106 3.687 1.853 3.771 6.992 5.698 10.614 2.179 4.044 7.458 6.234 11.815 4.886 2.514-.758 4.609-2.443 7.123-3.201 5.027-1.601 10.306.758 15.334 2.443 3.435 1.179 7.541 1.853 10.893.927-2.933-14.237-7.458-28.39-10.223-36.476-7.29-3.117-14.664-5.813-22.624-5.981z" fill="#fcbf65"/><path d="M211.117 145.612c1.005 3.032 3.77 5.138 6.871 4.886 3.519-.337 6.201-3.538 6.117-7.414-4.358 1.01-8.631 1.77-12.988 2.528z" fill="#fff"/><path opacity=".15" d="M260.471 104.334c-1.592-3.201-3.352-6.487-5.698-9.182-3.268-3.791-7.541-6.655-12.318-8.087-3.603-1.096-7.457-1.348-11.144-2.106-3.687-.758-7.458-2.106-10.055-4.802-1.006-1.095-1.844-2.36-2.849-3.454-4.525.674-9.05 1.6-13.407 2.949l-2.347 5.39c-.419 7.414.168 15.08 3.52 21.65 3.351 6.57 9.971 11.794 17.345 11.878 4.19 0 8.379-1.684 11.396-4.633 2.095 2.612 4.19 5.223 6.871 7.245 2.598 2.022 5.866 3.454 9.217 3.285 3.687-.168 7.123-2.274 9.385-5.223 1.173-1.432 2.095-3.032 2.43-4.886.671-3.538-.754-6.907-2.346-10.024z" fill="#f498ac"/><path d="M289.213 306.256c-2.514-6.655-5.363-13.983-9.385-20.133-2.011-.421-3.939-1.095-5.866-1.853-6.033-2.36-10.642-5.055-17.261-4.633-4.274.337-8.966 1.769-11.983 4.97-.167.168-.419.42-.419.674-.084.505.252 1.095.754 1.263.503.253 1.006.169 1.592.169 4.106-.17 8.966-1.095 12.988-.337 3.352.674 7.123 1.853 10.223 3.285-7.792 1.685-15.753.59-22.959 4.549-1.76.927-11.145 7.329-7.793 9.94 1.425 1.18 2.681.337 3.855-.505 7.792-5.728 17.596-7.666 27.149-7.16-.922.589-2.011.842-3.101 1.095-3.519.842-7.038 1.516-10.306 3.032-4.19 1.854-8.296 5.139-11.061 8.845-.335.506-.754 1.01-.838 1.6-.168.59 0 1.349.503 1.686.335.253.67.337 1.089.337 1.089.084 2.095-.421 3.1-.927 3.687-1.853 6.955-4.38 10.726-5.897 4.022-1.684 8.379-2.443 12.82-1.937-4.105 1.263-8.128 2.948-11.814 5.138-3.939 2.275-8.045 5.897-7.877 10.53 0 .253 0 .59.168.843.67 1.095 2.262.168 3.184-.674 3.268-3.201 7.374-5.56 11.815-6.571 3.016-.674 5.195-.421 7.876.927 3.017 1.516 6.201 2.78 9.553 3.285 2.597.337 5.027.253 7.374-.253-1.425-3.706-2.682-7.497-4.106-11.288z" fill="#f498ac"/><path d="M204.497 81.336c-.754 10.278 3.938 20.892 12.15 27.21 3.268 2.527 7.458 4.549 11.564 3.622 3.687-.842 6.536-3.79 8.798-6.823 3.017 9.098 12.318 15.668 21.87 15.5 1.173 0 2.43-.17 3.436-.674 2.43-1.264 3.1-4.38 3.268-7.076.419-11.625-6.201-22.83-15.754-29.4-9.552-6.57-21.618-8.845-33.182-8.003-4.441.337-8.966 1.18-12.569 3.875" fill="#7c4499"/><path d="M173.577 100.122c1.844 2.359 5.279 2.527 8.212 2.19 12.904-1.684 24.635-10.95 29.16-23.25-3.184-1.685-6.955-1.264-10.474-.421-4.274 1.01-8.463 2.696-12.318 4.886-3.1 1.769-6.117 4.128-7.206 7.497" fill="#7c4499"/><path opacity=".15" d="M272.956 132.723c-.838 3.622-2.681 6.907-5.195 9.603-1.173 1.264-2.514 2.443-4.106 3.2-.419.17-4.357 2.276-4.441 1.433-.67-7.581.251-15.837 5.782-21.565 1.424-1.516 3.603-2.78 5.446-2.022.838.337 1.509 1.095 1.928 1.853 1.257 2.275 1.173 5.055.586 7.498z" fill="#f498ac"/><path d="M259.298 146.285c.167 0 .167-1.516.335-3.875.168-2.358.419-5.728 1.508-9.182 1.09-3.454 3.101-6.15 4.86-7.666 1.76-1.6 3.184-2.106 3.101-2.274 0-.084-1.592.253-3.52 1.769-1.927 1.516-4.106 4.296-5.279 7.918-1.173 3.623-1.257 6.992-1.257 9.435 0 2.359.168 3.875.252 3.875z" fill="#c4657e"/><path d="M261.393 140.894c0 .084.838-.084 1.927-.927 1.005-.842 2.179-2.443 2.262-4.55.084-2.105-.838-3.874-1.759-4.8-.922-.927-1.76-1.18-1.76-1.096-.084.085.587.59 1.341 1.517.754.927 1.508 2.527 1.424 4.296-.084 1.77-1.005 3.285-1.843 4.128-.922.926-1.676 1.263-1.592 1.432z" fill="#c4657e"/><path opacity=".15" d="M214.804 124.804c-.168 1.853-1.676 3.37-3.101 4.549-1.424 1.263-3.016 2.527-3.519 4.296a4.926 4.926 0 00-.168 1.937c0 .759.084 1.517.419 2.275.671 1.685 2.43 2.78 4.274 2.864 1.843.084 3.603-.758 4.86-2.022 1.257-1.348 1.927-3.117 2.178-4.886.252-1.77 0-3.622-.838-5.222-.838-1.601-2.262-2.865-3.938-3.37" fill="#f498ac"/><path d="M214.133 140.64c0-.083-.502-.083-1.424-.252a5.6 5.6 0 01-3.1-1.853c-.503-.59-.922-1.348-1.09-2.19-.167-.843-.167-1.853.168-2.78.335-.927.838-1.77 1.759-2.527.838-.674 1.928-1.264 3.017-2.19a6.177 6.177 0 001.341-1.601 6.32 6.32 0 00.586-1.938c.168-1.347 0-2.527-.083-3.622-.252-2.19-.587-4.212-1.006-5.812-.754-3.286-1.592-5.223-1.76-5.14-.167.085.252 2.107.838 5.392.252 1.6.503 3.623.671 5.813.083 1.095.167 2.274 0 3.285a5.394 5.394 0 01-.503 1.517 4.907 4.907 0 01-1.089 1.263c-.922.758-2.012 1.348-3.017 2.19-1.006.843-1.76 2.022-2.095 3.117-.335 1.18-.335 2.359 0 3.454.251 1.01.838 1.938 1.508 2.527a6.099 6.099 0 003.771 1.769c1.006-.084 1.508-.337 1.508-.421zm3.028-2.284c.529-.647.812-1.292.633-1.44-.179-.147-.752.258-1.281.906-.528.647-.811 1.29-.633 1.439.179.147.753-.258 1.281-.905z" fill="#c4657e"/><path opacity=".23" d="M352.644 275.593c3.687-7.413.168-17.69-7.122-28.81-.587 2.19-1.174 4.296-1.76 6.402-2.43 8.677-5.782 17.27-11.396 24.346-9.301 11.793-23.63 18.11-38.294 21.986l9.888 17.27c0 .168 39.551-22.661 48.684-41.194z" fill="#fcbf65"/><path d="M245.388 285.197c.587.084 1.173-.085 1.676-.421.503-.337.922-.843 1.09-1.348.251-.506.251-1.011.251-1.432v-.17c-.084.085-.168.085-.335.17-.084.758-.419 1.769-1.341 2.358-.419.253-.922.422-1.424.422-.252 0-.503-.085-.671-.17l-.084.085c-.083.085-.167.169-.167.253.335.084.67.253 1.005.253zm-1.759 15.753c-.084 0-.084.758-.922 1.179-.419.253-1.006.59-1.592.674-.335.084-.587 0-.754-.168-.168-.17-.168-.59-.084-.927.335-1.348 1.76-2.36 2.597-2.022.419.169.587.506.671.758.084.337.084.506.084.506s.083-.17.083-.506c0-.252-.083-.842-.67-1.095-.503-.253-1.341-.168-1.927.253-.587.42-1.173 1.095-1.341 1.937-.084.422-.084.927.251 1.348.168.169.419.337.587.337h.587c.754-.168 1.257-.505 1.759-.842.419-.337.671-.758.754-1.095 0-.17 0-.337-.083-.337zm6.117 9.434c-.084 0-.335.506-1.173 1.01-.419.254-1.006.507-1.425.254-.251-.084-.419-.337-.503-.59-.083-.252 0-.59.168-.926.168-.337.419-.59.67-.758.252-.253.503-.422.755-.59.502-.337 1.089-.17 1.34.168.252.337.335.758.252 1.01-.084.254-.168.422-.084.422 0 0 .167-.084.251-.421.084-.253.084-.758-.167-1.263-.168-.253-.419-.506-.755-.506-.335-.084-.754 0-1.089.169-.335.168-.586.42-.922.674-.251.252-.586.589-.754.926-.167.337-.335.758-.251 1.264.084.42.419.842.838.926.419.169.754.085 1.089 0 .335-.084.587-.252.754-.421.838-.59 1.09-1.263 1.006-1.348zm6.032 9.519s-.167 0-.419.085a.619.619 0 01-.754-.337c-.335-.674.168-2.19 1.257-2.78.252-.17.587-.17.838-.084.252.084.419.168.419.42 0 .506-.251 1.012-.503 1.433-.502.842-.921 1.263-.838 1.263 0 .085.587-.252 1.173-1.01.252-.422.587-.927.671-1.685 0-.084 0-.17-.084-.337-.084-.084-.084-.253-.168-.337-.167-.17-.335-.253-.586-.337-.419-.084-.838-.084-1.257.084-.754.42-1.173 1.095-1.424 1.685-.252.674-.252 1.348.083 1.853.168.253.419.42.587.42.251 0 .419 0 .503-.083.419-.084.502-.168.502-.253z" fill="#fff"/></svg>