<svg width="99" height="99" fill="none" xmlns="http://www.w3.org/2000/svg"><path d="M22.272 43.245H7.857c-.801 0-1.45.65-1.45 1.45V57.509c0 .801.649 1.45 1.45 1.45h14.415c.8 0 1.45-.649 1.45-1.45V44.695c0-.8-.65-1.45-1.45-1.45zM11.212 56.06H9.307v-3.507h1.905v3.507zm4.804-4.957v4.957h-1.904v-4.957c0-.8-.65-1.45-1.45-1.45H9.307v-3.506h11.515v3.506h-3.355c-.801 0-1.45.65-1.45 1.45zm4.806 4.956h-1.905v-3.506h1.905v3.506zM59.11 62.465a7.86 7.86 0 0 0-4.807 1.645 7.815 7.815 0 0 0-4.803-1.645c-4.332 0-7.857 3.524-7.857 7.856 0 4.333 3.525 7.857 7.857 7.857a7.815 7.815 0 0 0 4.803-1.645 7.859 7.859 0 0 0 4.807 1.645c4.332 0 7.857-3.524 7.857-7.856 0-4.333-3.525-7.858-7.857-7.858zM49.5 75.278a4.962 4.962 0 0 1-4.956-4.957 4.962 4.962 0 0 1 4.956-4.956 4.962 4.962 0 0 1 4.957 4.957 4.962 4.962 0 0 1-4.957 4.956zm9.61 0a4.958 4.958 0 0 1-2.873-.92 7.807 7.807 0 0 0 1.12-4.037c0-1.475-.41-2.856-1.12-4.037a4.957 4.957 0 0 1 2.873-.92 4.962 4.962 0 0 1 4.957 4.957 4.962 4.962 0 0 1-4.957 4.957zM11.06 64.067H7.856a1.45 1.45 0 0 0 0 2.9h3.204a1.45 1.45 0 0 0 0-2.9zM19.068 64.067h-3.204a1.45 1.45 0 0 0 0 2.9h3.204a1.45 1.45 0 1 0 0-2.9zM27.077 64.067h-3.204a1.45 1.45 0 0 0 0 2.9h3.204a1.45 1.45 0 0 0 0-2.9zM35.085 64.067H31.88a1.45 1.45 0 0 0 0 2.9h3.204a1.45 1.45 0 0 0 0-2.9zM17.466 70.473h-9.61a1.45 1.45 0 0 0 0 2.9h9.61a1.45 1.45 0 0 0 0-2.9zM31.882 70.473h-9.61a1.45 1.45 0 0 0 0 2.9h9.61a1.45 1.45 0 0 0 0-2.9zM17.466 75.278h-9.61a1.45 1.45 0 0 0 0 2.9h9.61a1.45 1.45 0 0 0 0-2.9z" fill="#4C4C4C"/><path d="M94.347 14.415H30.28a4.659 4.659 0 0 0-4.653 4.654v17.77h-6.865a1.45 1.45 0 0 0 0 2.9H68.72c.967 0 1.753.786 1.753 1.753v38.44c0 .966-.786 1.753-1.753 1.753H4.653A1.755 1.755 0 0 1 2.9 79.932v-38.44c0-.967.787-1.753 1.753-1.753h8.314a1.45 1.45 0 0 0 0-2.9H4.653A4.659 4.659 0 0 0 0 41.491v38.44a4.659 4.659 0 0 0 4.653 4.653H68.72a4.659 4.659 0 0 0 4.653-4.653v-17.77h20.974A4.659 4.659 0 0 0 99 57.508v-38.44a4.658 4.658 0 0 0-4.653-4.653zm-65.82 4.654c0-.967.787-1.753 1.753-1.753h64.067c.966 0 1.753.786 1.753 1.753v3.354H28.527V19.07zM96.1 57.509c0 .966-.787 1.752-1.753 1.752H73.374v-17.77a4.659 4.659 0 0 0-4.654-4.653H28.527v-3.506H96.1v24.176zm0-27.078H28.527v-5.107H96.1v5.107z" fill="#4C4C4C"/><path d="M91.143 46.448h-6.407c-.8 0-1.45.65-1.45 1.45v6.407c0 .8.65 1.45 1.45 1.45h6.407c.801 0 1.45-.65 1.45-1.45v-6.407c0-.8-.649-1.45-1.45-1.45zm-1.45 6.407h-3.507v-3.507h3.507v3.507z" fill="#4C4C4C"/></svg>