<svg width="85" height="85" fill="none" xmlns="http://www.w3.org/2000/svg"><g clip-path="url(#clip0)" fill="#4C4C4C"><path d="M39.058 22.988a7.066 7.066 0 0 0-7.057 7.058v4.982a7.066 7.066 0 0 0 7.057 7.058 7.066 7.066 0 0 0 7.058-7.058v-4.982a7.066 7.066 0 0 0-7.058-7.058zm0 16.607c-2.38 0-4.34-1.83-4.547-4.157a7.025 7.025 0 0 0 4.547 1.666 7.025 7.025 0 0 0 4.547-1.666 4.572 4.572 0 0 1-4.547 4.157zm0-4.982a4.572 4.572 0 0 1-4.567-4.567 4.572 4.572 0 0 1 4.567-4.567 4.572 4.572 0 0 1 4.567 4.567 4.572 4.572 0 0 1-4.567 4.567z"/><path d="M39.058 27.14c-.688 0-1.245.558-1.245 1.246v3.321a1.245 1.245 0 0 0 2.49 0v-3.321c0-.688-.557-1.246-1.245-1.246zM61.477 8.043c-6.181 0-11.21 5.029-11.21 11.21v4.981c0 6.18 5.028 11.209 11.21 11.209 6.173 0 11.196-5.018 11.207-11.189l.001-.02v-4.982c0-6.18-5.028-11.209-11.209-11.209zm0 24.91c-3.948 0-7.288-2.638-8.358-6.242 2.054 2.3 5.039 3.75 8.358 3.75 3.318 0 6.302-1.45 8.356-3.748-1.07 3.603-4.41 6.24-8.357 6.24zm0-4.982c-4.808 0-8.719-3.912-8.719-8.719 0-4.807 3.911-8.718 8.718-8.718 4.808 0 8.718 3.911 8.718 8.718 0 4.808-3.91 8.719-8.718 8.719z"/><path d="M61.477 14.685c-.688 0-1.245.558-1.246 1.246l-.001 6.643a1.246 1.246 0 0 0 2.49 0l.002-6.643c0-.688-.557-1.245-1.245-1.245zM84.283 50.188a6.237 6.237 0 0 0-8.468-2.3c-.54.265-7.43 3.651-13.108 6.04a1.246 1.246 0 0 0 .966 2.297c5.953-2.506 13.206-6.085 13.279-6.121.024-.012.047-.024.07-.038a3.742 3.742 0 0 1 5.104 1.368c1.193 2.063-.67 4.328-1.581 5.253C74.362 61.675 57.25 74.466 51.5 74.466c-6.375 0-24.263-3.79-28.638-4.738V49.385c8.674-1.275 13.27.324 22.9 3.68 2.929 1.02 6.248 2.177 10.281 3.467.602.262 2.27 1.2 1.634 3.323-.386 1.29-1.632 2.522-3.457 2.18-2.452-.46-16.881-2.416-17.494-2.5a1.245 1.245 0 1 0-.335 2.469c.15.02 14.98 2.031 17.37 2.48.37.07.731.103 1.08.103 2.643 0 4.588-1.898 5.223-4.017.667-2.23-.027-5.052-3.078-6.344a.267.267 0 0 0-.013-.006l-.011-.005-.051-.018-.052-.02c-4.029-1.287-7.349-2.444-10.278-3.464-9.603-3.347-14.664-5.107-23.719-3.843v-1.041c0-.688-.557-1.246-1.245-1.246H17.88v-1.245c0-.688-.557-1.245-1.245-1.245H1.246C.557 42.093 0 42.65 0 43.338V70.73a1.245 1.245 0 1 0 2.49 0V44.584h12.9v29.882h-2.489V73.22a1.245 1.245 0 1 0-2.49 0v1.245H1.244a1.245 1.245 0 1 0 0 2.49h15.391c.688 0 1.245-.557 1.245-1.245v-1.308h3.736c.688 0 1.245-.557 1.245-1.245v-.88c5.211 1.126 22.17 4.679 28.638 4.679 3.404 0 9.439-3.033 18.45-9.27a234.94 234.94 0 0 0 12.213-9.105 1.24 1.24 0 0 0 .098-.089c2.706-2.71 3.462-5.814 2.022-8.305zM20.37 70.71v1.203h-2.49v-24.84h2.49V70.71z"/></g><defs><clipPath id="clip0"><path fill="#fff" d="M0 0h85v85H0z"/></clipPath></defs></svg>