<svg width="79" height="79" fill="none" xmlns="http://www.w3.org/2000/svg"><path d="M46.412 12.666V8.52h.72c.594 0 1.075-.481 1.075-1.075v-2.41A5.041 5.041 0 0 0 43.172 0h-7.344a5.041 5.041 0 0 0-5.036 5.036v2.41c0 .593.482 1.074 1.075 1.074h.722v4.146a33.394 33.394 0 0 0-13.325 6.097L16.8 16.298a2.219 2.219 0 0 0-3.134 0l-3.043 3.044a2.201 2.201 0 0 0-.65 1.567c0 .592.231 1.149.65 1.567l2.424 2.425a33.359 33.359 0 0 0-7.073 20.573C5.974 63.96 21.014 79 39.5 79c18.486 0 33.526-15.04 33.526-33.526 0-16.117-11.433-29.613-26.614-32.808zm-13.47-7.63a2.89 2.89 0 0 1 2.886-2.887h7.344a2.89 2.89 0 0 1 2.887 2.887V6.37H32.942V5.036zm1.796 3.562h9.525v3.69a33.662 33.662 0 0 0-9.525 0v-3.69zM12.142 20.956a.063.063 0 0 1-.02-.047c0-.027.015-.042.02-.047l3.044-3.044a.067.067 0 0 1 .094 0l2.305 2.304a33.865 33.865 0 0 0-3.157 3.12l-2.286-2.286zM39.5 76.851c-17.301 0-31.377-14.076-31.377-31.377S22.2 14.097 39.5 14.097s31.377 14.076 31.377 31.377c0 17.302-14.076 31.377-31.377 31.377z" fill="#4C4C4C"/><path d="M39.5 19.33c-14.416 0-26.144 11.728-26.144 26.144 0 14.416 11.728 26.144 26.144 26.144 14.416 0 26.144-11.728 26.144-26.144 0-14.416-11.728-26.144-26.144-26.144zm0 50.139c-13.23 0-23.995-10.764-23.995-23.995 0-13.23 10.764-23.995 23.995-23.995 13.23 0 23.995 10.764 23.995 23.995 0 13.23-10.764 23.995-23.995 23.995z" fill="#4C4C4C"/><path d="M40.553 31.53a1.074 1.074 0 0 0-2.106 0s-2.831 13.446-2.831 13.944a3.889 3.889 0 0 0 3.884 3.884 3.888 3.888 0 0 0 3.884-3.884c0-.498-2.831-13.944-2.831-13.944zM39.5 37.105l.942 4.6a3.88 3.88 0 0 0-1.884 0l.942-4.6zm0 10.104a1.737 1.737 0 0 1-1.735-1.735c0-.957.778-1.735 1.735-1.735.957 0 1.735.778 1.735 1.735 0 .957-.779 1.735-1.735 1.735zM39.5 62.115c-.593 0-1.075.481-1.075 1.074v4.161a1.075 1.075 0 0 0 2.15 0v-4.16c0-.594-.482-1.075-1.075-1.075zM39.5 28.833c.593 0 1.074-.481 1.074-1.074v-4.162a1.075 1.075 0 1 0-2.149 0v4.162c0 .593.482 1.074 1.075 1.074zM26.214 57.241l-2.942 2.942a1.075 1.075 0 0 0 1.52 1.52l2.942-2.942a1.074 1.074 0 1 0-1.52-1.52zM52.028 34.022c.285 0 .558-.114.76-.315l2.94-2.943a1.074 1.074 0 0 0-1.52-1.519l-2.91 2.913a1.075 1.075 0 0 0 .73 1.864zM21.784 44.4h-4.161a1.075 1.075 0 0 0 0 2.15h4.16a1.075 1.075 0 0 0 0-2.15zM61.376 44.399h-4.16a1.075 1.075 0 0 0 0 2.149h4.16a1.075 1.075 0 0 0 0-2.15zM26.212 33.707c.202.201.475.315.76.315h.002a1.074 1.074 0 0 0 .742-1.851l-2.925-2.926a1.074 1.074 0 1 0-1.52 1.52l2.941 2.942zM52.786 57.241a1.074 1.074 0 1 0-1.52 1.52l2.943 2.942a1.071 1.071 0 0 0 1.52 0c.419-.42.419-1.1 0-1.52l-2.943-2.942z" fill="#4C4C4C"/></svg>